<svg width="520" height="520" viewBox="0 0 520 520" xmlns="http://www.w3.org/2000/svg" role="img" aria-labelledby="sealTitle sealDesc">
  <title id="sealTitle">Barangay Legaspi Seal</title>
  <desc id="sealDesc">Circular barangay emblem with a rayburst, community figures, and circular text.</desc>

  <defs>
    <path id="topArc" d="M 112 260 A 148 148 0 0 1 408 260" />
    <path id="bottomArc" d="M 408 260 A 148 148 0 0 1 112 260" />
    <linearGradient id="goldStroke" x1="0" x2="1">
      <stop offset="0%" stop-color="#f6dc6f" />
      <stop offset="100%" stop-color="#d8a82f" />
    </linearGradient>
    <linearGradient id="blueFill" x1="0" x2="1">
      <stop offset="0%" stop-color="#7bbfe6" />
      <stop offset="100%" stop-color="#4d99d5" />
    </linearGradient>
  </defs>

  <circle cx="260" cy="260" r="246" fill="url(#blueFill)" stroke="url(#goldStroke)" stroke-width="12" />
  <circle cx="260" cy="260" r="220" fill="#edf6fb" stroke="#d8a82f" stroke-width="8" />

  <text font-size="30" font-weight="800" letter-spacing="2" font-family="Georgia, 'Times New Roman', serif" fill="#0c2a3d" text-anchor="middle">
    <textPath href="#topArc" startOffset="50%">SANGGUNIANG KABATAAN NG LEGASPI</textPath>
  </text>

  <text font-size="28" font-weight="700" letter-spacing="2" font-family="Georgia, 'Times New Roman', serif" fill="#0c2a3d" text-anchor="middle">
    <textPath href="#bottomArc" startOffset="50%">TAYUG, PANGASINAN</textPath>
  </text>

  <g fill="#0d2434" stroke="#0d2434" stroke-width="2">
    <path d="M 118 142 L 133 167 L 159 167 L 138 185 L 146 212 L 118 195 L 90 212 L 98 185 L 77 167 L 103 167 Z" />
    <path d="M 402 142 L 417 167 L 443 167 L 422 185 L 430 212 L 402 195 L 374 212 L 382 185 L 361 167 L 387 167 Z" />
  </g>

  <g>
    <circle cx="260" cy="260" r="142" fill="#f4efe7" stroke="#d8a82f" stroke-width="7" />
    <circle cx="260" cy="260" r="103" fill="#f6d15a" stroke="#d8a82f" stroke-width="6" />

    <g fill="#f1d764" stroke="#d8a82f" stroke-width="4">
      <path d="M 260 160 L 270 203 L 260 214 L 250 203 Z" />
      <path d="M 260 360 L 270 317 L 260 306 L 250 317 Z" />
      <path d="M 160 260 L 203 250 L 214 260 L 203 270 Z" />
      <path d="M 360 260 L 317 250 L 306 260 L 317 270 Z" />
      <path d="M 185 185 L 210 205 L 201 216 L 177 197 Z" />
      <path d="M 335 185 L 310 205 L 319 216 L 343 197 Z" />
      <path d="M 185 335 L 210 315 L 201 304 L 177 323 Z" />
      <path d="M 335 335 L 310 315 L 319 304 L 343 323 Z" />
    </g>

    <circle cx="260" cy="260" r="52" fill="#f7f7f6" stroke="#d8a82f" stroke-width="5" />

    <g>
      <circle cx="200" cy="294" r="20" fill="#d75c4d" stroke="#0d2434" stroke-width="3" />
      <path d="M 180 322 C 185 300, 212 302, 220 323 L 226 364 L 174 364 Z" fill="#d75c4d" stroke="#0d2434" stroke-width="3" />

      <circle cx="260" cy="288" r="20" fill="#4eb9d8" stroke="#0d2434" stroke-width="3" />
      <path d="M 240 315 C 245 296, 276 296, 280 315 L 292 364 L 228 364 Z" fill="#4eb9d8" stroke="#0d2434" stroke-width="3" />

      <circle cx="320" cy="294" r="20" fill="#4bb36e" stroke="#0d2434" stroke-width="3" />
      <path d="M 300 322 C 305 300, 332 302, 340 323 L 346 364 L 294 364 Z" fill="#4bb36e" stroke="#0d2434" stroke-width="3" />

      <circle cx="242" cy="222" r="18" fill="#d98139" stroke="#0d2434" stroke-width="3" />
      <path d="M 224 246 C 231 234, 252 234, 258 246 L 265 295 L 218 295 Z" fill="#d98139" stroke="#0d2434" stroke-width="3" />

      <circle cx="278" cy="222" r="18" fill="#d45d59" stroke="#0d2434" stroke-width="3" />
      <path d="M 259 246 C 266 234, 291 234, 298 246 L 305 295 L 254 295 Z" fill="#d45d59" stroke="#0d2434" stroke-width="3" />
    </g>

    <g fill="#f0f4f7" stroke="#0d2434" stroke-width="3">
      <path d="M 162 258 L 175 282 L 150 282 Z" />
      <path d="M 358 258 L 345 282 L 370 282 Z" />
    </g>
  </g>

  <g fill="#d5a73d" stroke="#0d2434" stroke-width="4">
    <path d="M 176 149 L 189 177 L 160 177 Z" />
    <path d="M 344 149 L 331 177 L 360 177 Z" />
  </g>
</svg>
